<svg width="54" height="25" viewBox="0 0 54 25" fill="none" xmlns="http://www.w3.org/2000/svg">
<rect width="54" height="24" rx="5" fill="#7700C7"/>
<path d="M8.24023 12.2754C8.24023 11.1882 8.44531 10.1758 8.85547 9.23828C9.26562 8.29427 9.85807 7.47721 10.6328 6.78711C11.4141 6.09049 12.3646 5.54362 13.4844 5.14648C14.6107 4.74935 15.8835 4.55078 17.3027 4.55078C18.5462 4.55078 19.6855 4.67773 20.7207 4.93164C21.7624 5.17904 22.7292 5.5599 23.6211 6.07422L22.1953 8.41797C21.9284 8.24219 21.6191 8.08594 21.2676 7.94922C20.9225 7.8125 20.5514 7.69857 20.1543 7.60742C19.7637 7.50977 19.3568 7.4349 18.9336 7.38281C18.5169 7.33073 18.1035 7.30469 17.6934 7.30469C16.7038 7.30469 15.8216 7.42839 15.0469 7.67578C14.2721 7.91667 13.6178 8.25846 13.084 8.70117C12.5566 9.13737 12.153 9.66146 11.873 10.2734C11.5996 10.8789 11.4629 11.5462 11.4629 12.2754C11.4629 13.0306 11.6061 13.724 11.8926 14.3555C12.179 14.987 12.5924 15.5339 13.1328 15.9961C13.6797 16.4518 14.3438 16.8099 15.125 17.0703C15.9128 17.3242 16.8014 17.4512 17.791 17.4512C18.2402 17.4512 18.6862 17.4186 19.1289 17.3535C19.5716 17.2884 19.998 17.2005 20.4082 17.0898C20.8249 16.9727 21.2253 16.8359 21.6094 16.6797C21.9935 16.5169 22.3516 16.3411 22.6836 16.1523L24.1094 18.4961C23.276 19.0299 22.3125 19.4499 21.2188 19.7559C20.125 20.0553 18.9629 20.2051 17.7324 20.2051C16.1634 20.2051 14.7865 20.0033 13.6016 19.5996C12.4167 19.1895 11.4271 18.6296 10.6328 17.9199C9.83854 17.2038 9.23958 16.3639 8.83594 15.4004C8.4388 14.4303 8.24023 13.3887 8.24023 12.2754ZM28.2402 15.459C28.7936 15.7715 29.3535 16.0547 29.9199 16.3086C30.4928 16.556 31.0853 16.7676 31.6973 16.9434C32.3092 17.1126 32.9505 17.2428 33.6211 17.334C34.2982 17.4251 35.0176 17.4707 35.7793 17.4707C36.6973 17.4707 37.4785 17.4121 38.123 17.2949C38.7676 17.1712 39.2917 17.0052 39.6953 16.7969C40.1055 16.582 40.4017 16.3281 40.584 16.0352C40.7728 15.7422 40.8672 15.4232 40.8672 15.0781C40.8672 14.5247 40.6361 14.0885 40.1738 13.7695C39.7116 13.444 38.9987 13.2812 38.0352 13.2812C37.612 13.2812 37.166 13.3105 36.6973 13.3691C36.2285 13.4212 35.7533 13.4798 35.2715 13.5449C34.7962 13.61 34.3242 13.6719 33.8555 13.7305C33.3932 13.7826 32.957 13.8086 32.5469 13.8086C31.8633 13.8086 31.2057 13.7207 30.5742 13.5449C29.9492 13.3691 29.3926 13.1055 28.9043 12.7539C28.4225 12.4023 28.0384 11.9629 27.752 11.4355C27.4655 10.9082 27.3223 10.293 27.3223 9.58984C27.3223 9.17318 27.3776 8.75977 27.4883 8.34961C27.6055 7.93945 27.7878 7.54883 28.0352 7.17773C28.2891 6.80013 28.6146 6.45182 29.0117 6.13281C29.4089 5.80729 29.8874 5.52734 30.4473 5.29297C31.0137 5.05859 31.6647 4.8763 32.4004 4.74609C33.1426 4.60938 33.9857 4.54102 34.9297 4.54102C35.6133 4.54102 36.3001 4.58008 36.9902 4.6582C37.6803 4.72982 38.3509 4.83398 39.002 4.9707C39.6595 5.10742 40.291 5.27344 40.8965 5.46875C41.502 5.65755 42.0651 5.86914 42.5859 6.10352L41.2285 8.60352C40.7988 8.41471 40.3366 8.24219 39.8418 8.08594C39.347 7.92318 38.8294 7.7832 38.2891 7.66602C37.7487 7.54883 37.1888 7.45768 36.6094 7.39258C36.0365 7.32096 35.4505 7.28516 34.8516 7.28516C33.9987 7.28516 33.2956 7.34701 32.7422 7.4707C32.1953 7.5944 31.7591 7.75391 31.4336 7.94922C31.1081 8.13802 30.8802 8.35286 30.75 8.59375C30.6263 8.82812 30.5645 9.0625 30.5645 9.29688C30.5645 9.7526 30.7695 10.127 31.1797 10.4199C31.5898 10.7064 32.2148 10.8496 33.0547 10.8496C33.3932 10.8496 33.7806 10.8268 34.2168 10.7812C34.6595 10.7292 35.1217 10.6738 35.6035 10.6152C36.0918 10.5566 36.5866 10.5046 37.0879 10.459C37.5957 10.4069 38.0872 10.3809 38.5625 10.3809C39.4609 10.3809 40.2552 10.4818 40.9453 10.6836C41.6419 10.8854 42.2246 11.1751 42.6934 11.5527C43.1621 11.9238 43.5169 12.3763 43.7578 12.9102C43.9987 13.4375 44.1191 14.0299 44.1191 14.6875C44.1191 15.5664 43.9141 16.3509 43.5039 17.041C43.1003 17.7246 42.5208 18.304 41.7656 18.7793C41.0169 19.248 40.112 19.6061 39.0508 19.8535C37.9896 20.0944 36.8079 20.2148 35.5059 20.2148C34.6465 20.2148 33.8066 20.1595 32.9863 20.0488C32.166 19.9447 31.3783 19.7949 30.623 19.5996C29.8743 19.3978 29.1582 19.1602 28.4746 18.8867C27.7975 18.6068 27.1693 18.3008 26.5898 17.9688L28.2402 15.459Z" fill="white"/>
</svg>
